<svg xmlns="http://www.w3.org/2000/svg" width="160" height="40" fill="none"><path fill="#51baf9" d="M28.057 28.501a4.25 4.25 0 1 1-4.25-7.361c2.033-1.174 12.52-2.321 12.52-2.321s-6.237 8.509-8.27 9.682z"/><g fill="#fff"><path fill-rule="evenodd" d="M31.409 7.257a18.898 18.898 0 0 1 7.76 7.076 15.858 15.858 0 0 0-5.603-4.604c-7.625-3.77-16.74-.896-20.359 6.422-2.268 4.586-1.84 9.828.674 14.031l-7.266 3.707c-3.122-5.33-3.586-12.078-.643-18.03 4.649-9.4 16.037-13.25 25.437-8.602z" clip-rule="evenodd"/><path d="m62.762 5.63-2.975 12.083h-3.86l-1.157-5.265c-.022-.099-.058-.267-.107-.504a60.797 60.797 0 0 0-.157-.81c-.055-.303-.108-.6-.157-.892a19.874 19.874 0 0 1-.1-.752c-.021.203-.057.454-.107.752-.05.292-.105.59-.165.892-.055.303-.11.573-.165.81l-.108.504-1.165 5.265h-3.86L45.688 5.63h3.148l1.314 6.058c.034.149.078.36.133.636.06.27.12.568.181.893.067.32.127.628.182.925s.094.546.116.744c.044-.341.102-.73.173-1.165.078-.435.16-.876.248-1.322.094-.452.182-.87.265-1.257.082-.385.154-.7.215-.942l1.066-4.57h3.025l1.033 4.57c.055.237.124.551.206.942.088.386.177.805.265 1.257.093.451.179.898.256 1.338.077.436.135.819.173 1.15.034-.276.089-.623.166-1.042.077-.424.154-.835.231-1.232.083-.402.146-.705.19-.909l1.34-6.074zM67.333 8.184c.91 0 1.694.16 2.355.48.661.313 1.171.787 1.53 1.42.357.634.536 1.428.536 2.38v1.439h-5.776c.027.49.209.892.545 1.206.342.314.843.471 1.504.471.584 0 1.119-.057 1.603-.173.49-.116.995-.295 1.513-.537v2.322c-.452.237-.945.41-1.48.52s-1.209.166-2.024.166c-.942 0-1.785-.168-2.53-.504s-1.33-.857-1.76-1.562c-.424-.705-.636-1.612-.636-2.72 0-1.123.193-2.046.579-2.768.385-.727.925-1.264 1.62-1.611.694-.353 1.5-.53 2.421-.53zm.116 2.198c-.38 0-.7.121-.959.364-.253.237-.402.611-.446 1.124h2.777c-.006-.276-.061-.526-.166-.752s-.259-.405-.463-.537c-.198-.133-.446-.199-.743-.199zM76.305 4.853v2.91c0 .33-.012.647-.034.95-.022.297-.05.578-.082.843h.116c.242-.38.559-.703.95-.967.391-.27.904-.405 1.537-.405.975 0 1.771.413 2.389 1.24.622.826.933 2.022.933 3.586 0 1.063-.143 1.959-.43 2.686-.286.722-.688 1.267-1.206 1.636-.512.364-1.107.546-1.785.546-.661 0-1.165-.113-1.512-.339a4.937 4.937 0 0 1-.876-.744h-.199l-.512.918h-2.52V4.853zm1.305 5.868c-.297 0-.542.069-.735.207-.193.137-.336.352-.43.644-.094.287-.14.653-.14 1.1v.454c0 .727.096 1.267.289 1.62.198.352.548.529 1.05.529.38 0 .671-.196.875-.587.204-.391.306-.962.306-1.71s-.099-1.312-.297-1.687c-.199-.38-.505-.57-.918-.57zM87.999 5.63c1.532 0 2.678.333 3.438 1 .766.667 1.149 1.614 1.149 2.843 0 .551-.08 1.08-.24 1.587-.154.507-.41.959-.769 1.355-.352.397-.823.71-1.413.942-.584.232-1.306.347-2.165.347h-.917v4.009h-3.265V5.63zm-.074 2.636h-.843v2.777h.644c.281 0 .543-.047.785-.14.243-.1.436-.256.579-.471.149-.22.223-.513.223-.876 0-.38-.113-.689-.339-.926-.226-.242-.576-.364-1.05-.364zM97.876 8.184c1.184 0 2.11.295 2.777.884.666.584 1 1.419 1 2.504v6.14h-2.24l-.62-1.24h-.066c-.264.332-.537.602-.818.81a2.749 2.749 0 0 1-.95.447c-.359.1-.797.149-1.315.149-.54 0-1.024-.11-1.454-.33a2.403 2.403 0 0 1-1.017-1c-.248-.447-.372-1.012-.372-1.695 0-1.003.348-1.746 1.042-2.231.694-.485 1.7-.758 3.016-.818l1.562-.05v-.132c0-.419-.104-.716-.314-.893-.204-.176-.48-.264-.826-.264-.37 0-.783.066-1.24.198a9.945 9.945 0 0 0-1.363.496l-.934-2.132a7.332 7.332 0 0 1 1.834-.628c.683-.144 1.45-.215 2.298-.215zm.562 5.347-.744.033c-.595.022-1.014.127-1.256.314-.237.182-.356.443-.356.785 0 .32.086.556.257.71.17.15.396.224.677.224.391 0 .725-.124 1-.372.281-.248.422-.57.422-.967zM106.711 21.779c-1.328 0-2.353-.223-3.075-.67-.716-.44-1.074-1.077-1.074-1.909 0-.556.174-1.016.521-1.38.347-.364.867-.625 1.562-.785a1.906 1.906 0 0 1-.752-.587c-.21-.27-.314-.537-.314-.801 0-.292.079-.549.239-.77.16-.225.493-.492 1-.8a2.519 2.519 0 0 1-1.149-1.009c-.275-.457-.413-1.014-.413-1.67 0-.677.155-1.256.463-1.735.314-.48.769-.846 1.364-1.099.6-.253 1.33-.38 2.19-.38.115 0 .292.01.529.033.237.016.476.038.719.066.242.022.429.044.562.066h3.264v1.562l-1.281.471c.088.16.154.333.198.52.045.188.067.386.067.596 0 1.008-.356 1.79-1.067 2.347-.705.556-1.76.835-3.165.835-.347 0-.622-.022-.826-.066a.762.762 0 0 0-.116.405c0 .126.074.228.223.305.154.072.339.121.554.149.22.028.43.041.628.041h1.554c1.052 0 1.84.22 2.363.661.524.441.785 1.105.785 1.992 0 1.14-.487 2.028-1.462 2.661-.97.634-2.334.95-4.091.95zm.157-2.017a6.64 6.64 0 0 0 1.182-.107c.396-.066.73-.177 1-.33.27-.155.405-.359.405-.612a.483.483 0 0 0-.24-.438 1.645 1.645 0 0 0-.62-.19 6.194 6.194 0 0 0-.802-.05h-1.256c-.231 0-.443.036-.636.107a1.167 1.167 0 0 0-.446.306.635.635 0 0 0-.166.43c0 .264.144.477.43.636.287.165.669.248 1.149.248zm.438-6.909c.308 0 .545-.118.711-.355.17-.237.256-.592.256-1.066 0-.485-.08-.849-.24-1.091s-.402-.364-.727-.364c-.336 0-.587.121-.752.364-.166.237-.248.595-.248 1.074 0 .48.082.84.248 1.083.165.237.416.355.752.355zM117.653 8.184c.909 0 1.694.16 2.355.48a3.377 3.377 0 0 1 1.529 1.42c.359.634.538 1.428.538 2.38v1.439h-5.777c.027.49.209.892.545 1.206.342.314.843.471 1.504.471.584 0 1.119-.057 1.604-.173.49-.116.994-.295 1.512-.537v2.322a5.61 5.61 0 0 1-1.479.52c-.535.11-1.21.166-2.025.166-.942 0-1.785-.168-2.529-.504s-1.331-.857-1.76-1.562c-.425-.705-.637-1.612-.637-2.72 0-1.123.193-2.046.579-2.768.386-.727.925-1.264 1.62-1.611.694-.353 1.501-.53 2.421-.53zm.116 2.198c-.38 0-.7.121-.959.364-.253.237-.402.611-.446 1.124h2.777a1.86 1.86 0 0 0-.166-.752 1.254 1.254 0 0 0-.462-.537c-.199-.133-.447-.199-.744-.199zM128.406 17.713h-3.264V8.299h-2.951V5.63h9.157V8.3h-2.942zM135.746 8.184c.909 0 1.694.16 2.356.48a3.38 3.38 0 0 1 1.528 1.42c.359.634.538 1.428.538 2.38v1.439h-5.777c.027.49.209.892.545 1.206.342.314.843.471 1.504.471.584 0 1.119-.057 1.604-.173.49-.116.994-.295 1.512-.537v2.322a5.61 5.61 0 0 1-1.479.52c-.535.11-1.21.166-2.025.166-.942 0-1.785-.168-2.529-.504s-1.331-.857-1.76-1.562c-.424-.705-.637-1.612-.637-2.72 0-1.123.193-2.046.579-2.768.386-.727.925-1.264 1.62-1.611.694-.353 1.501-.53 2.421-.53zm.116 2.198c-.38 0-.7.121-.959.364-.253.237-.402.611-.446 1.124h2.777a1.86 1.86 0 0 0-.166-.752 1.248 1.248 0 0 0-.462-.537c-.199-.133-.447-.199-.744-.199zM148.614 14.837c0 .595-.132 1.12-.397 1.578-.264.457-.688.816-1.272 1.075-.579.258-1.342.388-2.289.388-.667 0-1.265-.036-1.794-.107a7.335 7.335 0 0 1-1.595-.414v-2.586c.59.27 1.19.465 1.802.586.611.116 1.093.174 1.446.174.364 0 .628-.039.793-.116.171-.082.257-.204.257-.363a.43.43 0 0 0-.174-.348c-.11-.099-.311-.212-.603-.338a54.393 54.393 0 0 0-1.215-.513 6.289 6.289 0 0 1-1.298-.702c-.341-.254-.597-.557-.768-.91s-.256-.784-.256-1.297c0-.914.352-1.603 1.057-2.066.706-.463 1.64-.694 2.802-.694.617 0 1.198.069 1.744.206.545.133 1.11.328 1.694.587l-.884 2.083a9.121 9.121 0 0 0-1.405-.504c-.474-.127-.851-.19-1.132-.19-.254 0-.449.033-.587.099-.138.066-.207.162-.207.289 0 .116.047.218.141.306.099.088.283.19.553.306s.664.278 1.182.487c.546.22.995.458 1.347.71.358.249.623.552.794.91.176.358.264.813.264 1.364zM154.833 15.324c.292 0 .559-.03.802-.09.242-.061.496-.138.76-.232v2.355a6.523 6.523 0 0 1-1.124.372c-.391.1-.892.149-1.504.149-.606 0-1.14-.094-1.603-.281a2.171 2.171 0 0 1-1.083-.992c-.253-.474-.38-1.132-.38-1.975v-3.86h-1.132V9.456l1.438-1.016.835-1.967h2.115V8.35h2.298v2.421h-2.298v3.645c0 .303.077.532.232.686.154.149.369.223.644.223zM127.661 31.958a.712.712 0 0 1-.118.383.677.677 0 0 1-.305.252.658.658 0 0 1-.733-.155.702.702 0 0 1-.144-.755.671.671 0 0 1 .884-.374c.083.035.157.087.22.153a.712.712 0 0 1 .196.496zm-.116 0a.57.57 0 0 0-.155-.423.56.56 0 0 0-.404-.177.544.544 0 0 0-.405.177.589.589 0 0 0-.155.423.589.589 0 0 0 .155.423.554.554 0 0 0 .929-.195.57.57 0 0 0 .035-.228zm-.456.101.171.252h-.134l-.169-.242h-.069v.242h-.124v-.688h.254a.195.195 0 0 1 .084.013.209.209 0 0 1 .118.12.23.23 0 0 1 .013.087.196.196 0 0 1-.031.137.186.186 0 0 1-.113.08zm-.204-.317v.22h.133a.105.105 0 0 0 .076-.033.112.112 0 0 0 .032-.077.112.112 0 0 0-.032-.078.105.105 0 0 0-.076-.032zm-37.376-1.083a3.33 3.33 0 0 1-.689 1.022 3.22 3.22 0 0 1-1.663.912c-.63.128-1.283.062-1.876-.192s-1.1-.68-1.456-1.23-.545-1.194-.544-1.854c-.007-.437.074-.871.238-1.275s.406-.77.713-1.073a3.202 3.202 0 0 1 2.294-.976c.86 0 1.686.351 2.294.976.286.29.517.63.682 1.006h-1.646l-.029-.03a1.713 1.713 0 0 0-.588-.417 1.675 1.675 0 0 0-.703-.133 1.732 1.732 0 0 0-.71.135 1.77 1.77 0 0 0-.597.415c-.173.18-.308.395-.398.63-.09.237-.131.49-.122.742a1.97 1.97 0 0 0 .52 1.388c.173.174.377.31.602.402s.464.137.706.132a1.749 1.749 0 0 0 1.292-.534l.04-.046zm-20.884-.027-.04.046c-.17.175-.37.312-.593.404-.222.092-.46.136-.7.13-.24.003-.48-.043-.702-.135a1.817 1.817 0 0 1-.598-.402 1.969 1.969 0 0 1-.52-1.388 1.903 1.903 0 0 1 .122-.741c.09-.236.225-.45.398-.631.17-.179.372-.32.597-.415s.466-.14.71-.135c.24-.007.48.038.703.133.223.095.423.237.589.417l.028.03h1.648a3.326 3.326 0 0 0-.681-1.007 3.103 3.103 0 0 0-1.045-.732 3.033 3.033 0 0 0-1.243-.243 3.047 3.047 0 0 0-1.25.241 3.116 3.116 0 0 0-1.051.734c-.307.304-.55.67-.713 1.074-.164.405-.245.84-.237 1.278-.008.44.072.877.235 1.283.163.407.407.775.715 1.08.3.312.66.558 1.055.723.395.166.82.247 1.246.239.425.006.847-.076 1.24-.24s.75-.411 1.048-.721c.29-.293.523-.64.687-1.022zm56.723.58c-.699 0-1.04-.397-1.04-1.205v-2.486h1.218v-1.403h-1.212V23.22h-1.41v6.787c0 1.87 1.01 2.608 2.45 2.608h.297V31.21zm-43.169 0v1.403h-.29c-1.44 0-2.45-.733-2.45-2.608V23.22h1.41v2.898h1.218v1.403h-1.218v2.486c0 .808.342 1.204 1.04 1.204zm20.523-1.967c0 1.113-.803 1.921-1.826 1.921-1.024 0-1.827-.808-1.827-1.921s.773-1.922 1.827-1.922c1.023 0 1.826.824 1.826 1.922zm-3.445 2.883c.252.198.92.44 1.619.44.427.007.852-.073 1.249-.237a3.198 3.198 0 0 0 1.061-.718c.303-.31.542-.68.704-1.086.162-.407.242-.843.237-1.282a3.271 3.271 0 0 0-.237-1.276 3.2 3.2 0 0 0-.713-1.073 3.094 3.094 0 0 0-1.051-.736 3.018 3.018 0 0 0-1.25-.24 3.261 3.261 0 0 0-2.287.905c-.642.594-.964 1.418-.964 2.47v6.197h1.426v-3.52zm7.413-2.838c-.007.255.036.508.125.746s.223.455.395.639a1.8 1.8 0 0 0 1.306.533c.24.006.478-.038.7-.13s.423-.229.592-.403a1.888 1.888 0 0 0 .535-1.388 1.854 1.854 0 0 0-.125-.745 1.812 1.812 0 0 0-.41-.627 1.715 1.715 0 0 0-.589-.417 1.674 1.674 0 0 0-.703-.133 1.73 1.73 0 0 0-1.306.55 1.899 1.899 0 0 0-.52 1.375zm-.475-2.349a3.204 3.204 0 0 1 2.294-.975c.861 0 1.686.35 2.295.975a3.2 3.2 0 0 1 .713 1.073c.163.404.244.838.237 1.276.008.44-.072.877-.236 1.284a3.199 3.199 0 0 1-.715 1.08 3.237 3.237 0 0 1-2.295.96 3.236 3.236 0 0 1-2.294-.96c-.308-.306-.552-.674-.715-1.08s-.243-.844-.235-1.284a3.271 3.271 0 0 1 .237-1.276 3.2 3.2 0 0 1 .713-1.073zm11.244 2.166c0-1.1.489-1.662 1.261-1.662.773 0 1.278.58 1.278 1.662v3.508h1.425v-3.508c0-1.022-.267-1.8-.802-2.303-.517-.49-1.196-.762-1.9-.762s-1.383.272-1.9.762c-.521.504-.788 1.266-.788 2.303v3.508h1.426zm-4.327-2.99h1.426v6.498h-1.425zm-22.285-2.89v9.388h1.425v-3.508c0-1.113.505-1.662 1.262-1.662.773 0 1.278.565 1.278 1.662v3.508h1.425v-3.508c0-.99-.253-1.753-.757-2.272a2.386 2.386 0 0 0-.816-.595 2.33 2.33 0 0 0-.981-.198 2.429 2.429 0 0 0-1.41.44v-3.255zM74.542 31.21c1.025 0 1.827-.808 1.827-1.921s-.774-1.922-1.827-1.922c-1.024 0-1.82.824-1.82 1.922s.802 1.921 1.82 1.921zm1.82 1.334v-.525c-.067.06-.139.116-.213.168a3.537 3.537 0 0 1-1.607.427 3.12 3.12 0 0 1-1.25-.237 3.19 3.19 0 0 1-1.062-.718 3.292 3.292 0 0 1-.705-1.087 3.362 3.362 0 0 1-.236-1.283c-.004-.44.079-.874.241-1.28s.403-.775.706-1.084c.302-.31.663-.554 1.059-.719.396-.165.82-.247 1.247-.241a3.26 3.26 0 0 1 2.287.9c.642.594.964 1.417.964 2.47v3.209z"/></g><path fill="#0bf" d="M113.203 23.48a.87.87 0 0 1 1.234.015c.163.167.255.393.258.63s-.085.465-.244.636a.87.87 0 0 1-1.234-.014.92.92 0 0 1-.014-1.267z"/><path fill="#fff" d="M47.41 23.722h1.351v3.13h.024c.095-.15.21-.285.344-.403.134-.119.28-.218.438-.297.166-.087.336-.15.51-.19.182-.047.36-.07.533-.07.482 0 .901.086 1.257.26.363.166.664.4.9.7.238.292.415.636.534 1.03s.178.819.178 1.269c0 .41-.056.81-.166 1.197a3.03 3.03 0 0 1-.486 1.031c-.214.293-.486.53-.818.712-.332.173-.723.26-1.173.26-.206 0-.415-.015-.629-.047a2.185 2.185 0 0 1-1.114-.462 1.537 1.537 0 0 1-.38-.498h-.023v.841h-1.28zm4.718 5.405a3.05 3.05 0 0 0-.107-.806 2.118 2.118 0 0 0-.32-.687 1.569 1.569 0 0 0-.534-.486 1.415 1.415 0 0 0-.734-.19c-.57 0-1 .198-1.292.593-.285.395-.427.92-.427 1.576 0 .309.035.597.107.866.079.26.193.486.343.675.15.19.328.34.534.45.213.111.458.167.735.167.308 0 .568-.064.782-.19.213-.126.387-.288.521-.486.143-.205.241-.435.297-.688.063-.26.095-.525.095-.794zM53.945 26.057h1.482l1.6 4.576h.024l1.552-4.576h1.41l-2.382 6.46a27.4 27.4 0 0 1-.332.794 2.493 2.493 0 0 1-.39.664 1.55 1.55 0 0 1-.57.463c-.229.118-.521.177-.877.177a6.15 6.15 0 0 1-.936-.07v-1.139l.32.048c.103.023.21.035.32.035a1.1 1.1 0 0 0 .391-.06.575.575 0 0 0 .249-.177c.071-.071.13-.158.178-.26s.09-.222.13-.356l.154-.474z"/></svg>